<svg xmlns="http://www.w3.org/2000/svg" viewBox="0 0 512 512">
  <path fill="#34A853" d="M325.3 234.3L104.6 13.6C96.5 5.5 84.6 1.7 73.2 4.1L298.8 229.7L325.3 234.3z"></path>
  <path fill="#FBBC04" d="M298.8 282.3L73.2 507.9c11.4 2.4 23.3-1.4 31.4-9.5l220.7-220.7-26.5 4.6z"></path>
  <path fill="#EA4335" d="M338.6 256c0-5.4-2.3-10.4-6.1-13.9l-27.2-27.2-35.2 35.1 35.2 35.1 27.2-27.2c3.8-3.5 6.1-8.5 6.1-13.9z"></path>
  <path fill="#4285F4" d="M73.2 4.1C61.8 6.5 49.9 10.3 41.8 18.4L262.5 239.1 298.8 229.7 73.2 4.1z"></path>
</svg>