<svg data-name="TransUnion CIBIL" id="TransUnion_CIBIL" viewBox="0 0 192 51.2" xmlns="http://www.w3.org/2000/svg"><defs><style>.cls-1{fill:#00a6ca;}</style></defs><title>Artboard 1</title><path class="cls-1" d="M23.95,28.72a3.68,3.68,0,0,0-1.1-.55A3.78,3.78,0,0,0,21.6,28a4.36,4.36,0,0,0-.94.11,3.43,3.43,0,0,0-.88.32,2.93,2.93,0,0,0-.72.53,1.93,1.93,0,0,0-.46.74,1.69,1.69,0,0,0-.35-1,1.75,1.75,0,0,0-.76-.54,2.88,2.88,0,0,0-1-.17,5.24,5.24,0,0,0-1.13.13l0,1.57a1.88,1.88,0,0,1,.64.05.55.55,0,0,1,.33.24,1,1,0,0,1,.12.42c0,.17,0,.37,0,.59V38.4h2.29V32.51A2.51,2.51,0,0,1,19,31.44a2.09,2.09,0,0,1,.57-.75,2.39,2.39,0,0,1,.84-.45,3.27,3.27,0,0,1,1-.15,3.61,3.61,0,0,1,1.65.39h0Z"></path><path class="cls-1" d="M34.06,36.77a.6.6,0,0,1-.33-.27,1,1,0,0,1-.12-.47c0-.18,0-.39,0-.63V28.93a11.68,11.68,0,0,0-2.05-.69A9.34,9.34,0,0,0,29.42,28a6.5,6.5,0,0,0-2.3.35,5.09,5.09,0,0,0-3,2.83,5.88,5.88,0,0,0-.46,2.29,6.81,6.81,0,0,0,.29,2,4.71,4.71,0,0,0,.86,1.63A3.89,3.89,0,0,0,26.2,38.2a4.9,4.9,0,0,0,2,.39A4.06,4.06,0,0,0,30.34,38a3.26,3.26,0,0,0,1.41-1.64A2.59,2.59,0,0,0,32,37.62a1.65,1.65,0,0,0,.68.68,2.14,2.14,0,0,0,1,.23,5.13,5.13,0,0,0,1.08-.09V36.81A1.46,1.46,0,0,1,34.06,36.77Zm-2.68-3.49a4.1,4.1,0,0,1-.71,2.34,2.26,2.26,0,0,1-2,.92,2.57,2.57,0,0,1-2.11-.84,3.4,3.4,0,0,1-.69-2.23A4.53,4.53,0,0,1,26.2,32a3.55,3.55,0,0,1,.69-1.14,2.94,2.94,0,0,1,1-.73,3.34,3.34,0,0,1,1.33-.25,6.19,6.19,0,0,1,1,.1,4.53,4.53,0,0,1,1.09.33Z"></path><path class="cls-1" d="M45.08,29.26a3.51,3.51,0,0,0-1.26-.92A4.43,4.43,0,0,0,42,28a5.6,5.6,0,0,0-1,.1,4.66,4.66,0,0,0-1,.3,3.06,3.06,0,0,0-.86.54,2.32,2.32,0,0,0-.59.82,1.82,1.82,0,0,0-.3-1.11,1.43,1.43,0,0,0-.75-.53,3,3,0,0,0-1-.11,7.9,7.9,0,0,0-1.12.14v1.59a2.22,2.22,0,0,1,.6,0,.52.52,0,0,1,.33.21.9.9,0,0,1,.13.45c0,.19,0,.44,0,.73V38.4h2.33V32.6a3,3,0,0,1,.2-1.12,2.57,2.57,0,0,1,.55-.87,2.45,2.45,0,0,1,.81-.56,2.53,2.53,0,0,1,1-.2,2.45,2.45,0,0,1,1.73.69,2.42,2.42,0,0,1,.67,1.87v6h2.33v-6a6,6,0,0,0-.24-1.76A3.82,3.82,0,0,0,45.08,29.26Z"></path><path class="cls-1" d="M55.38,33.08A4.67,4.67,0,0,0,54,32.62c-.51-.1-1-.18-1.57-.26A8.43,8.43,0,0,1,50.66,32a.88.88,0,0,1-.62-.86,1,1,0,0,1,.15-.6,1.34,1.34,0,0,1,.48-.45,2.53,2.53,0,0,1,.69-.28,3.17,3.17,0,0,1,.78-.1,5.54,5.54,0,0,1,.82.06,2.58,2.58,0,0,1,.74.22,1.63,1.63,0,0,1,.54.41,1,1,0,0,1,.21.64h2a2.43,2.43,0,0,0-.32-1.33,2.89,2.89,0,0,0-.94-1,4.44,4.44,0,0,0-1.4-.58A7.21,7.21,0,0,0,52.13,28a6.77,6.77,0,0,0-1.61.19,4.33,4.33,0,0,0-1.39.59,3.28,3.28,0,0,0-1,1,2.61,2.61,0,0,0-.37,1.42,2.2,2.2,0,0,0,.43,1.38,2.79,2.79,0,0,0,1.06.79,5.81,5.81,0,0,0,1.44.41L52.3,34a6.16,6.16,0,0,1,1.65.4,1,1,0,0,1,.64,1,1.4,1.4,0,0,1-.24.77,1.51,1.51,0,0,1-.57.48,3,3,0,0,1-.77.24,4.77,4.77,0,0,1-.85.07,3.65,3.65,0,0,1-.83-.09,2.72,2.72,0,0,1-.73-.29,1.75,1.75,0,0,1-.54-.48,1.23,1.23,0,0,1-.23-.69H47.56A3.12,3.12,0,0,0,48,37a3.32,3.32,0,0,0,1.07,1,4.38,4.38,0,0,0,1.46.53,9.19,9.19,0,0,0,1.66.15,7.15,7.15,0,0,0,1.65-.19,4.56,4.56,0,0,0,1.42-.58,3.12,3.12,0,0,0,1-1,2.73,2.73,0,0,0,.38-1.46A2.64,2.64,0,0,0,56.33,34,2.58,2.58,0,0,0,55.38,33.08Z"></path><path class="cls-1" d="M81.21,29.26A3.5,3.5,0,0,0,80,28.34a4.43,4.43,0,0,0-1.8-.34,5.59,5.59,0,0,0-1,.1,4.62,4.62,0,0,0-1,.3,3.06,3.06,0,0,0-.86.54,2.33,2.33,0,0,0-.59.82,1.81,1.81,0,0,0-.3-1.11,1.43,1.43,0,0,0-.75-.53,3,3,0,0,0-1-.11,7.88,7.88,0,0,0-1.12.14v1.59a2.14,2.14,0,0,1,.6,0,.52.52,0,0,1,.33.21.93.93,0,0,1,.13.45c0,.19,0,.44,0,.73V38.4h2.33V32.6a3,3,0,0,1,.2-1.12,2.6,2.6,0,0,1,.55-.87,2.47,2.47,0,0,1,.81-.56,2.53,2.53,0,0,1,1-.2,2.45,2.45,0,0,1,1.72.69,2.42,2.42,0,0,1,.67,1.87v6h2.33v-6a6,6,0,0,0-.24-1.76A3.79,3.79,0,0,0,81.21,29.26Z"></path><path class="cls-1" d="M85.28,23.68a1.54,1.54,0,0,0-1,.34,1.21,1.21,0,0,0-.43,1,1.25,1.25,0,0,0,.44,1,1.45,1.45,0,0,0,1,.33,1.58,1.58,0,0,0,.93-.36,1.43,1.43,0,0,0,0-2A1.5,1.5,0,0,0,85.28,23.68Z"></path><rect class="cls-1" height="10.2" width="2.31" x="84.12" y="28.19"></rect><path class="cls-1" d="M97.17,29.28a5.08,5.08,0,0,0-1.76-1A6.73,6.73,0,0,0,93.36,28a5.94,5.94,0,0,0-1.95.33,5,5,0,0,0-1.69,1A4.88,4.88,0,0,0,88.52,31a5.42,5.42,0,0,0-.46,2.3,5.52,5.52,0,0,0,.47,2.34,5,5,0,0,0,1.22,1.67,5,5,0,0,0,1.71,1,6.14,6.14,0,0,0,4,0,5.11,5.11,0,0,0,1.72-1,5,5,0,0,0,1.23-1.67,6.15,6.15,0,0,0,0-4.67A4.63,4.63,0,0,0,97.17,29.28Zm-.9,5.41a3.17,3.17,0,0,1-.69,1,2.8,2.8,0,0,1-1,.62,3.07,3.07,0,0,1-1.12.21,3.37,3.37,0,0,1-1.15-.2,2.9,2.9,0,0,1-1-.61,3,3,0,0,1-.71-1,3.68,3.68,0,0,1-.27-1.45,3.6,3.6,0,0,1,.25-1.41,2.81,2.81,0,0,1,.68-1,2.89,2.89,0,0,1,1-.59A3.62,3.62,0,0,1,93.36,30a3.3,3.3,0,0,1,1.16.17,2.78,2.78,0,0,1,1,.59,3,3,0,0,1,.72,1,3.47,3.47,0,0,1,.28,1.44A3.6,3.6,0,0,1,96.27,34.69Z"></path><path class="cls-1" d="M5.44,25.76V23.58h11v2.18h-4.3V38.4H9.74V25.76Z"></path><path class="cls-1" d="M58.43,33.42V23.58h2.45v9.78c0,1.95,1.46,3,3.34,3a3,3,0,0,0,3.3-3V23.58H70v9.85c0,3.3-2.58,5.16-5.74,5.16S58.43,36.72,58.43,33.42Z"></path><path class="cls-1" d="M110.28,36V34.4h0v-2a6.08,6.08,0,0,0-.24-1.76,3.83,3.83,0,0,0-.74-1.39,3.51,3.51,0,0,0-1.26-.92,4.43,4.43,0,0,0-1.8-.34,5.56,5.56,0,0,0-1,.1,4.65,4.65,0,0,0-1,.3,3,3,0,0,0-.86.54,2.35,2.35,0,0,0-.59.82,1.82,1.82,0,0,0-.3-1.11,1.44,1.44,0,0,0-.75-.53,3,3,0,0,0-1-.11,7.87,7.87,0,0,0-1.12.14v1.59a2.13,2.13,0,0,1,.6,0,.52.52,0,0,1,.33.21.93.93,0,0,1,.13.45c0,.19,0,.44,0,.73V38.4H103V32.6a3,3,0,0,1,.2-1.12,2.57,2.57,0,0,1,.55-.87,2.46,2.46,0,0,1,.81-.56,2.52,2.52,0,0,1,1-.2,2.45,2.45,0,0,1,1.72.69A2.42,2.42,0,0,1,108,32.4v3.44h0v.25c0,2.48,1.55,2.74,3.54,2.35V37C110.48,37.06,110.28,36.78,110.28,36Z"></path><path class="cls-1" d="M116.31,7A10.68,10.68,0,0,0,107,12.32a3.25,3.25,0,0,0-.25,3.3,3.1,3.1,0,0,0,2.75,1.23h1.36l-.49,1.55a3,3,0,0,0,.31,2.62,2.57,2.57,0,0,0,2.15,1,4.53,4.53,0,0,0,1.91-.39,3.45,3.45,0,0,1-.4-.76,3.63,3.63,0,0,1-.19-.78,3.47,3.47,0,0,1-1.24.21,1,1,0,0,1-.79-.35,1.21,1.21,0,0,1-.1-1l.67-2.08h2.1l.56-1.73H113.3l.92-2.84h-1.84l-.92,2.84h-1.92c-.61,0-1-.16-1.18-.47s0-1.09.49-2l0,0a9,9,0,1,1-1.37,6.68l-1.7.35A10.69,10.69,0,1,0,116.31,7Z"></path><path class="cls-1" d="M123.11,20.55a2.4,2.4,0,0,1-1.32-.3.88.88,0,0,1-.36-.54v0a1,1,0,0,1,.05-.49l1.32-4.07H121l-1.13,3.52h0a2.49,2.49,0,0,1-2.12,1.65.84.84,0,0,1-.66-.29.87.87,0,0,1-.08-.82l1.32-4.07h-1.84l-1.13,3.52a2.71,2.71,0,0,0,.28,2.43,2.44,2.44,0,0,0,2,1,4,4,0,0,0,2.51-1,1.86,1.86,0,0,0,1,.77,3.83,3.83,0,0,0,1.39.2A2.13,2.13,0,0,0,123,22l.11-.17.19-.34.18-.34.16-.36.1-.25A6,6,0,0,1,123.11,20.55Z"></path><path class="cls-1" d="M112.65,37.21a1.37,1.37,0,1,1,2.73,0A1.37,1.37,0,1,1,112.65,37.21Zm2.5,0a1.13,1.13,0,1,0-2.25,0A1.13,1.13,0,1,0,115.15,37.21Zm-.52.63v0h-.21l-.34-.46h-.29v.46h-.21V36.55h.54a.43.43,0,0,1,.47.43.39.39,0,0,1-.31.4Zm-.84-.6h.32a.25.25,0,0,0,.28-.26.26.26,0,0,0-.28-.25h-.32Z"></path><path class="cls-1" d="M137.44,23.41a6.59,6.59,0,0,1,6.69,5h-2.37a4.4,4.4,0,0,0-4.34-2.71c-3,0-5,2.2-5,5.35a5,5,0,0,0,5,5.29,4.36,4.36,0,0,0,4.4-3h2.39c-.74,3.62-3.79,5.21-6.79,5.21A7.24,7.24,0,0,1,129.91,31,7.28,7.28,0,0,1,137.44,23.41Z"></path><path class="cls-1" d="M152,36.41v2H144.8v-2h2.35V25.55H145v-2h6.77v2h-2.16V36.41Z"></path><path class="cls-1" d="M162.47,30.61A3.39,3.39,0,0,1,164.86,34c0,2.65-1.82,4.36-4.7,4.36h-6.62V23.58h6c2.69,0,4.66,1.38,4.66,4.17A3,3,0,0,1,162.47,30.61ZM156,25.72V29.8h3.39c1.42,0,2.39-.55,2.41-2s-1-2.09-2.41-2.09Zm0,6.09v4.42h4a2.2,2.2,0,0,0,2.41-2.2,2.17,2.17,0,0,0-.76-1.76,3.08,3.08,0,0,0-1.93-.47Z"></path><path class="cls-1" d="M173,36.41v2h-7.15v-2h2.35V25.55H166v-2h6.77v2h-2.16V36.41Z"></path><path class="cls-1" d="M177.07,36.17h6.37V38.4h-8.85V23.58h2.48Z"></path><path class="cls-1" d="M184.6,37.21a1.37,1.37,0,1,1,2.73,0A1.37,1.37,0,1,1,184.6,37.21Zm2.5,0a1.13,1.13,0,1,0-2.25,0A1.13,1.13,0,1,0,187.1,37.21Zm-.52.63v0h-.21L186,37.4h-.29v.46h-.21V36.55h.54a.43.43,0,0,1,.47.43.39.39,0,0,1-.31.4Zm-.84-.6h.32a.25.25,0,0,0,.28-.26.26.26,0,0,0-.28-.25h-.32Z"></path></svg>