<svg width="260" height="46" viewBox="0 0 260 46" fill="none" xmlns="http://www.w3.org/2000/svg">
<g clip-path="url(#clip0_4465_22298)">
<path d="M36.9659 7.99857L26.2626 1.89266C23.0417 0.04937 19.0941 0.04937 15.8897 1.89266L5.18646 7.99857C1.98208 9.8254 0 13.2157 0 16.8859V29.1141C0 32.7843 1.98208 36.1581 5.18646 38.0014L15.8897 44.1238C19.0941 45.9506 23.0417 45.9506 26.2626 44.1238L36.9659 38.0014C40.1703 36.1746 42.1523 32.7843 42.1523 29.1141V16.8859C42.1523 13.2157 40.1703 9.84186 36.9659 7.99857Z" fill="#1D1B1C"/>
<path d="M21.0762 0.822898C22.348 0.822898 23.6033 1.15206 24.71 1.79392L37.7092 9.26583C39.9555 10.5496 41.343 12.9524 41.343 15.5363V30.4801C41.343 33.064 39.9555 35.4504 37.7092 36.7506L24.71 44.2225C23.6033 44.8644 22.348 45.1936 21.0762 45.1936C19.8043 45.1936 18.549 44.8644 17.4424 44.2225L4.44317 36.7506C2.19681 35.4669 0.809351 33.064 0.809351 30.4801V15.5363C0.809351 12.9524 2.19681 10.566 4.44317 9.26583L17.4424 1.77746C18.549 1.1356 19.8043 0.80644 21.0762 0.80644M21.0762 0C19.6887 0 18.2847 0.362075 17.0294 1.08623L4.04676 8.55814C1.55263 9.98998 0 12.6562 0 15.5363V30.4801C0 33.3603 1.53612 36.01 4.04676 37.4583L17.0459 44.9302C18.3013 45.6544 19.6887 46.0165 21.0927 46.0165C22.4967 46.0165 23.8841 45.6544 25.1394 44.9302L38.1386 37.4583C40.6327 36.0265 42.1854 33.3603 42.1854 30.4801V15.5363C42.1854 12.6562 40.6493 10.0064 38.1386 8.55814L25.1064 1.08623C23.8511 0.362075 22.4636 0 21.0597 0H21.0762Z" fill="url(#paint0_linear_4465_22298)"/>
<path d="M36.7185 14.1209L26.1143 38.347H24.8755L21.1591 30.0193L17.5253 38.347H16.1709L5.43457 14.1209H10.3237L16.782 28.7685L18.665 24.3413L15.1303 16.4086H27.1219L23.7193 24.2097L25.7179 28.7521L31.9284 14.1045H36.7185V14.1209ZM20.8948 6.99463C18.6485 6.99463 16.8316 8.805 16.8316 11.0433C16.8316 13.2816 18.6485 15.0919 20.8948 15.0919C23.1412 15.0919 24.9581 13.2816 24.9581 11.0433C24.9581 8.805 23.1412 6.99463 20.8948 6.99463Z" fill="url(#paint1_linear_4465_22298)"/>
<path d="M64.3685 10.8952H64.1537C63.7738 9.00252 63.2288 7.58713 60.6851 7.58713H59.0168V20.1116C59.0168 21.3789 59.4793 22.0208 60.0079 22.0208V22.2347H54.2433V22.0208C54.7554 22.0208 55.2178 21.3624 55.2178 20.1116V7.58713H53.5496C51.0224 7.58713 50.4608 9.00252 50.0809 10.8952H49.8662L49.9653 6.96173H64.2363L64.3354 10.8952H64.3685Z" fill="black"/>
<path d="M73.1722 14.5488C73.1722 13.2816 72.561 12.6562 71.3553 12.6562C70.612 12.6562 69.8357 13.117 69.3732 13.8411V19.9141C69.3732 20.951 69.8356 22.0207 70.3642 22.0207V22.2347H64.7979V22.0207C65.3264 22.0207 65.7889 20.9674 65.7889 19.9964V9.23291C65.7889 8.1796 65.3264 7.17566 64.7979 7.17566V6.96171C66.367 6.86296 68.0518 6.58318 69.1254 6.1059H69.3732V12.903C70.1825 11.9156 71.5865 11.1091 73.1887 11.1091C75.4846 11.1091 76.7564 12.541 76.7564 15.1249V19.9141C76.7564 20.951 77.2189 22.0207 77.7475 22.0207V22.2347H72.1811V22.0207C72.7097 22.0207 73.1722 20.9674 73.1722 19.9964V14.5488Z" fill="black"/>
<path d="M88.1371 16.1124H81.2989C81.4475 18.7785 82.7359 20.2762 84.6354 20.2762C85.3952 20.2762 87.5094 20.1446 87.9719 17.9886H88.1866C87.9388 20.8687 85.9072 22.4487 83.2314 22.4487C79.961 22.4487 77.665 20.0952 77.665 16.7213C77.665 13.3474 79.8618 11.1091 83.0002 11.1091C85.8742 11.1091 88.1536 13.1005 88.1536 15.668V16.1124H88.1371ZM84.6519 15.6022C84.5693 13.1335 83.9582 11.6193 83.0662 11.6193C82.0091 11.6193 81.3484 13.4462 81.2658 15.6022H84.6519Z" fill="black"/>
<path d="M96.0648 9.21647C95.6354 7.91629 94.8591 7.17568 94.4131 7.17568V6.96173H100.871V7.17568C100.012 7.17568 99.6821 7.91629 100.161 9.29876L103.019 17.9886L105.001 11.9485L104.142 9.21647C103.712 7.91629 102.936 7.17568 102.49 7.17568V6.96173H108.948V7.17568C108.089 7.17568 107.759 7.91629 108.238 9.29876L111.096 17.9886L114.036 9.06835C114.482 7.70234 114.085 7.17568 113.21 7.17568V6.96173H116.778V7.17568C115.968 7.17568 115.109 7.94921 114.729 9.13418L110.567 22.2347H108.271L105.397 13.1499L102.507 22.2347H100.211L96.0979 9.21647H96.0648Z" fill="black"/>
<path d="M124.525 16.1124H117.687C117.835 18.7785 119.124 20.2762 121.023 20.2762C121.783 20.2762 123.897 20.1446 124.36 17.9886H124.574C124.327 20.8687 122.295 22.4487 119.619 22.4487C116.349 22.4487 114.053 20.0952 114.053 16.7213C114.053 13.3474 116.25 11.1091 119.388 11.1091C122.262 11.1091 124.541 13.1005 124.541 15.668V16.1124H124.525ZM121.04 15.6022C120.957 13.1335 120.346 11.6193 119.454 11.6193C118.397 11.6193 117.736 13.4462 117.654 15.6022H121.04Z" fill="black"/>
<path d="M134.832 20.4902C134.832 20.951 134.98 21.2472 135.311 21.2472C135.525 21.2472 135.707 21.1649 135.889 20.8029H136.104C136.104 21.7574 135.129 22.4487 133.841 22.4487C132.47 22.4487 131.693 22.0701 131.363 21.2472C130.702 22.0866 129.711 22.4487 128.539 22.4487C126.639 22.4487 124.987 21.1649 124.987 18.976C124.987 15.849 127.746 14.8122 129.629 14.8122C130.785 14.8122 131.231 15.1413 131.231 15.1413V13.6272C131.231 12.4258 130.768 11.6358 130.141 11.6358C129.596 11.6358 129.315 12.1789 129.315 13.298C129.315 14.2197 128.506 14.9109 127.267 14.9109C126.276 14.9109 125.731 14.3678 125.731 13.5285C125.731 11.9979 127.581 11.1091 129.959 11.1091C133.163 11.1091 134.832 13.0841 134.832 16.1782V20.4902ZM131.247 16.5073C131.247 16.0301 131 15.5199 130.388 15.5199C129.414 15.5199 128.72 16.8036 128.72 19.0583C128.72 20.4408 129.315 21.2472 130.009 21.2472C130.488 21.2472 130.901 21.0497 131.247 20.5889V16.5073Z" fill="black"/>
<path d="M140.464 19.9141C140.464 20.951 140.926 22.0207 141.455 22.0207V22.2347H135.889V22.0207C136.417 22.0207 136.88 20.9674 136.88 19.9964V9.23291C136.88 8.1796 136.417 7.17566 135.889 7.17566V6.96171C137.458 6.86296 139.143 6.58318 140.216 6.1059H140.464V19.9306V19.9141Z" fill="black"/>
<path d="M145.535 8.19608H145.964V11.3066H148.376V11.8333H145.964V19.0419C145.964 20.0787 146.361 20.6383 147.054 20.6383C147.665 20.6383 148.178 20.161 148.26 19.7496H148.475C148.475 21.2802 147.137 22.4158 145.337 22.4158C143.387 22.4158 142.38 21.2308 142.38 19.0254V11.8168H141.042V11.2902H141.356C143.305 11.2902 145.155 9.95709 145.535 8.17963V8.19608Z" fill="black"/>
<path d="M156.75 14.5488C156.75 13.2816 156.139 12.6562 154.933 12.6562C154.19 12.6562 153.414 13.117 152.951 13.8411V19.9141C152.951 20.951 153.414 22.0207 153.942 22.0207V22.2347H148.376V22.0207C148.905 22.0207 149.367 20.9674 149.367 19.9964V9.23291C149.367 8.1796 148.905 7.17566 148.376 7.17566V6.96171C149.945 6.86296 151.63 6.58318 152.704 6.1059H152.951V12.903C153.761 11.9156 155.165 11.1091 156.767 11.1091C159.063 11.1091 160.335 12.541 160.335 15.1249V19.9141C160.335 20.951 160.797 22.0207 161.326 22.0207V22.2347H155.759V22.0207C156.288 22.0207 156.75 20.9674 156.75 19.9964V14.5488Z" fill="black"/>
<path d="M180.734 10.385C180.717 11.5206 179.974 12.4916 178.818 12.4916C177.48 12.4916 176.918 11.6852 176.935 10.5496C176.951 9.33168 177.232 7.35673 175.101 7.35673C173.185 7.35673 171.435 9.24939 171.435 13.5614C171.435 17.4125 173.251 19.8319 176.125 19.8319C178.537 19.8319 180.205 18.3342 180.453 15.9642H180.668C180.916 19.7989 178.438 22.4487 174.573 22.4487C170.344 22.4487 167.603 19.3546 167.603 14.5982C167.603 9.84188 170.889 6.73132 175.201 6.73132C178.603 6.73132 180.8 8.44295 180.75 10.385H180.734Z" fill="black"/>
<path d="M187.291 11.1091C190.578 11.1091 193.138 13.5449 193.138 16.7871C193.138 20.0293 190.578 22.4487 187.291 22.4487C184.004 22.4487 181.378 20.0129 181.378 16.7871C181.378 13.5614 183.955 11.1091 187.291 11.1091ZM187.275 21.922C188.398 21.922 189.306 20.8029 189.306 16.7707C189.306 12.7385 188.398 11.6358 187.275 11.6358C186.151 11.6358 185.226 12.7549 185.226 16.7707C185.226 20.7864 186.151 21.922 187.275 21.922Z" fill="black"/>
<path d="M200.884 14.5488C200.884 13.2815 200.356 12.6561 199.282 12.6561C198.621 12.6561 197.928 13.117 197.515 13.8082V19.9141C197.515 20.951 197.977 22.0207 198.506 22.0207V22.2347H192.939V22.0207C193.468 22.0207 193.931 20.9674 193.931 19.9964V14.4501C193.931 13.3967 193.468 12.3928 192.939 12.3928V12.1789C194.509 12.0801 196.193 11.8003 197.267 11.323H197.515V12.8866C198.275 11.8991 199.612 11.1255 201.132 11.1255C202.652 11.1255 203.626 11.7839 204.122 13.0182C204.865 11.9649 206.252 11.1255 207.822 11.1255C210.002 11.1255 211.175 12.5574 211.175 15.1413V19.9306C211.175 20.9674 211.637 22.0372 212.166 22.0372V22.2511H206.599V22.0372C207.128 22.0372 207.59 20.9839 207.59 20.0128V14.5653C207.59 13.298 207.062 12.6726 205.988 12.6726C205.394 12.6726 204.766 13.0511 204.336 13.6436C204.419 14.088 204.485 14.5982 204.485 15.1413V19.9306C204.485 20.9674 204.948 22.0372 205.476 22.0372V22.2511H199.91V22.0372C200.438 22.0372 200.901 20.9839 200.901 20.0128V14.5653L200.884 14.5488Z" fill="black"/>
<path d="M216.526 11.3231V12.4587C217.567 11.6029 218.872 11.1091 220.111 11.1091C222.704 11.1091 224.67 13.1499 224.67 16.5732C224.67 19.9964 222.687 22.4487 219.665 22.4487C218.228 22.4487 217.253 21.922 216.526 21.0168V24.7199C216.526 25.7567 216.989 26.8265 217.518 26.8265V27.0404H211.951V26.8265C212.48 26.8265 212.942 25.7732 212.942 24.8022V14.4501C212.942 13.3968 212.48 12.3929 211.951 12.3929V12.1789C213.52 12.0802 215.205 11.8004 216.279 11.3231H216.526ZM216.526 19.2064C216.923 20.8852 217.798 21.5435 218.756 21.5435C220.028 21.5435 220.871 19.7002 220.871 16.7213C220.871 13.7424 219.896 12.1624 218.509 12.1624C217.831 12.1624 216.906 12.7878 216.526 13.512V19.2064Z" fill="black"/>
<path d="M234.943 20.4902C234.943 20.951 235.092 21.2472 235.422 21.2472C235.637 21.2472 235.818 21.1649 236 20.8029H236.215C236.215 21.7574 235.24 22.4487 233.952 22.4487C232.581 22.4487 231.805 22.0701 231.474 21.2472C230.814 22.0866 229.823 22.4487 228.65 22.4487C226.75 22.4487 225.099 21.1649 225.099 18.976C225.099 15.849 227.857 14.8122 229.74 14.8122C230.896 14.8122 231.342 15.1413 231.342 15.1413V13.6272C231.342 12.4258 230.88 11.6358 230.252 11.6358C229.707 11.6358 229.426 12.1789 229.426 13.298C229.426 14.2197 228.617 14.9109 227.378 14.9109C226.387 14.9109 225.842 14.3678 225.842 13.5285C225.842 11.9979 227.692 11.1091 230.07 11.1091C233.275 11.1091 234.943 13.0841 234.943 16.1782V20.4902ZM231.342 16.5073C231.342 16.0301 231.094 15.5199 230.483 15.5199C229.509 15.5199 228.815 16.8036 228.815 19.0583C228.815 20.4408 229.41 21.2472 230.103 21.2472C230.582 21.2472 230.995 21.0497 231.342 20.5889V16.5073Z" fill="black"/>
<path d="M244.474 14.5488C244.474 13.2816 243.863 12.6562 242.657 12.6562C241.914 12.6562 241.137 13.117 240.675 13.8412V19.9141C240.675 20.951 241.137 22.0208 241.666 22.0208V22.2347H236.1V22.0208C236.628 22.0208 237.091 20.9674 237.091 19.9964V14.4501C237.091 13.3968 236.628 12.3929 236.1 12.3929V12.1789C237.669 12.0802 239.354 11.8004 240.427 11.3231H240.675V12.903C241.484 11.9156 242.888 11.1091 244.49 11.1091C246.786 11.1091 248.058 12.541 248.058 15.1249V19.9141C248.058 20.951 248.521 22.0208 249.049 22.0208V22.2347H243.483V22.0208C244.011 22.0208 244.474 20.9674 244.474 19.9964V14.5488Z" fill="black"/>
<path d="M249.247 23.5843C251.312 23.5843 250.519 25.7896 251.907 25.7896C252.386 25.7896 252.865 25.4605 253.261 24.5718L249.247 13.6108C248.801 12.3929 248.108 11.5206 247.579 11.5206V11.3066H253.492V11.5206C252.98 11.5206 252.749 12.3764 253.195 13.6108L255.26 19.2888L257.407 13.5449C257.853 12.3929 257.159 11.5206 256.647 11.5206V11.3066H259.984V11.5206C259.455 11.5206 258.332 12.3764 257.919 13.5449L253.971 24.1438C253.195 26.2669 252.006 27.2544 250.321 27.2544C247.133 27.2544 246.968 23.5678 249.247 23.5678V23.5843Z" fill="black"/>
<path d="M152.446 29.4617C153.474 29.4617 154.376 29.6627 155.152 30.0646C155.938 30.4666 156.541 31.0416 156.961 31.7894C157.391 32.528 157.606 33.388 157.606 34.3696C157.606 35.3512 157.391 36.2113 156.961 36.9498C156.541 37.679 155.938 38.2446 155.152 38.6465C154.376 39.0485 153.474 39.2495 152.446 39.2495H149.024V29.4617H152.446ZM152.376 37.5808C153.404 37.5808 154.199 37.3004 154.76 36.7395C155.321 36.1785 155.601 35.3886 155.601 34.3696C155.601 33.3506 155.321 32.556 154.76 31.9858C154.199 31.4062 153.404 31.1163 152.376 31.1163H150.988V37.5808H152.376Z" fill="#C1995B"/>
<path d="M146.316 39.2496H144.353L139.908 32.5327V39.2496H137.944V29.4477H139.908L144.353 36.1786V29.4477H146.316V39.2496Z" fill="#C1995B"/>
<path d="M129.329 29.4617V35.5195C129.329 36.1832 129.502 36.6927 129.848 37.048C130.194 37.3938 130.68 37.5668 131.307 37.5668C131.942 37.5668 132.433 37.3938 132.779 37.048C133.125 36.6927 133.298 36.1832 133.298 35.5195V29.4617H135.275V35.5055C135.275 36.3375 135.093 37.0433 134.728 37.6229C134.373 38.1931 133.891 38.6232 133.284 38.913C132.686 39.2028 132.017 39.3477 131.279 39.3477C130.549 39.3477 129.886 39.2028 129.287 38.913C128.698 38.6232 128.231 38.1931 127.885 37.6229C127.539 37.0433 127.366 36.3375 127.366 35.5055V29.4617H129.329Z" fill="#C1995B"/>
<path d="M125.232 29.4617V31.0462H121.152V33.5563H124.279V35.1128H121.152V39.2495H119.188V29.4617H125.232Z" fill="#C1995B"/>
<path d="M109.83 37.693H113.056V39.2495H107.867V29.4617H109.83V37.693Z" fill="#C1995B"/>
<path d="M103.06 37.3845H99.1615L98.5164 39.2496H96.4551L99.9748 29.4477H102.261L105.78 39.2496H103.705L103.06 37.3845ZM102.527 35.814L101.111 31.7194L99.6943 35.814H102.527Z" fill="#C1995B"/>
<path d="M88.4437 29.4617V35.5195C88.4437 36.1832 88.6166 36.6927 88.9625 37.048C89.3084 37.3938 89.7945 37.5668 90.4209 37.5668C91.0566 37.5668 91.5474 37.3938 91.8933 37.048C92.2392 36.6927 92.4121 36.1832 92.4121 35.5195V29.4617H94.3893V35.5055C94.3893 36.3375 94.207 37.0433 93.8424 37.6229C93.4872 38.1931 93.0057 38.6232 92.3981 38.913C91.7998 39.2028 91.1314 39.3477 90.3928 39.3477C89.6636 39.3477 88.9999 39.2028 88.4016 38.913C87.8126 38.6232 87.3452 38.1931 86.9993 37.6229C86.6534 37.0433 86.4805 36.3375 86.4805 35.5055V29.4617H88.4437Z" fill="#C1995B"/>
<path d="M84.3057 29.4617V31.0462H81.6974V39.2495H79.7342V31.0462H77.126V29.4617H84.3057Z" fill="#C1995B"/>
<path d="M69.0316 29.4617V35.5195C69.0316 36.1832 69.2045 36.6927 69.5504 37.048C69.8963 37.3938 70.3824 37.5668 71.0088 37.5668C71.6445 37.5668 72.1353 37.3938 72.4812 37.048C72.8271 36.6927 73 36.1832 73 35.5195V29.4617H74.9772V35.5055C74.9772 36.3375 74.7949 37.0433 74.4303 37.6229C74.0751 38.1931 73.5936 38.6232 72.986 38.913C72.3877 39.2028 71.7193 39.3477 70.9807 39.3477C70.2515 39.3477 69.5878 39.2028 68.9895 38.913C68.4005 38.6232 67.9331 38.1931 67.5872 37.6229C67.2413 37.0433 67.0684 36.3375 67.0684 35.5055V29.4617H69.0316Z" fill="#C1995B"/>
<path d="M64.3833 29.4615V39.2494H62.4201V32.8831L59.7978 39.2494H58.3114L55.6751 32.8831V39.2494H53.7119V29.4615H55.9415L59.0546 36.7393L62.1677 29.4615H64.3833Z" fill="#C1995B"/>
</g>
<defs>
<linearGradient id="paint0_linear_4465_22298" x1="0" y1="23.0082" x2="42.1523" y2="23.0082" gradientUnits="userSpaceOnUse">
<stop stop-color="#D49A29"/>
<stop offset="0.5" stop-color="#EBDF8B"/>
<stop offset="1" stop-color="#AC722A"/>
</linearGradient>
<linearGradient id="paint1_linear_4465_22298" x1="5.43457" y1="22.6791" x2="36.7185" y2="22.6791" gradientUnits="userSpaceOnUse">
<stop stop-color="#C39F53"/>
<stop offset="0.504808" stop-color="#EBDF8B"/>
<stop offset="1" stop-color="#9F7A45"/>
</linearGradient>
<clipPath id="clip0_4465_22298">
<rect width="260" height="46" fill="white"/>
</clipPath>
</defs>
</svg>
